<mxfile host="65bd71144e">
    <diagram id="QANuBK3f5aCacluh5Ynv" name="Page-1">
        <mxGraphModel dx="440" dy="579" grid="1" gridSize="10" guides="1" tooltips="1" connect="1" arrows="1" fold="1" page="1" pageScale="1" pageWidth="850" pageHeight="1100" math="0" shadow="0">
            <root>
                <mxCell id="0"/>
                <mxCell id="1" parent="0"/>
                <mxCell id="7" style="edgeStyle=none;html=1;exitX=0.5;exitY=1;exitDx=0;exitDy=0;fontSize=14;" edge="1" parent="1" source="5" target="8">
                    <mxGeometry relative="1" as="geometry">
                        <mxPoint x="545" y="180" as="targetPoint"/>
                    </mxGeometry>
                </mxCell>
                <mxCell id="5" value="&lt;font style=&quot;font-size: 14px;&quot;&gt;User Login Data Input.&lt;/font&gt;" style="ellipse;whiteSpace=wrap;html=1;" vertex="1" parent="1">
                    <mxGeometry x="485" y="40" width="120" height="80" as="geometry"/>
                </mxCell>
                <mxCell id="9" style="edgeStyle=none;html=1;exitX=0.5;exitY=1;exitDx=0;exitDy=0;fontSize=14;" edge="1" parent="1" source="8" target="10">
                    <mxGeometry relative="1" as="geometry">
                        <mxPoint x="544.9999999999999" y="260" as="targetPoint"/>
                    </mxGeometry>
                </mxCell>
                <mxCell id="8" value="Frontend Trasmits Data to Backend" style="rounded=0;whiteSpace=wrap;html=1;fontSize=14;" vertex="1" parent="1">
                    <mxGeometry x="485" y="160" width="120" height="60" as="geometry"/>
                </mxCell>
                <mxCell id="12" style="edgeStyle=none;html=1;exitX=0.5;exitY=1;exitDx=0;exitDy=0;entryX=0.502;entryY=0.006;entryDx=0;entryDy=0;entryPerimeter=0;fontSize=14;" edge="1" parent="1" source="10" target="11">
                    <mxGeometry relative="1" as="geometry"/>
                </mxCell>
                <mxCell id="10" value="JWT Creation Begins" style="rounded=0;whiteSpace=wrap;html=1;fontSize=14;" vertex="1" parent="1">
                    <mxGeometry x="484.9999999999999" y="280" width="120" height="60" as="geometry"/>
                </mxCell>
                <mxCell id="11" value="Valid JWT Format?" style="html=1;whiteSpace=wrap;aspect=fixed;shape=isoRectangle;fontSize=14;" vertex="1" parent="1">
                    <mxGeometry x="470" y="390" width="150" height="90" as="geometry"/>
                </mxCell>
                <mxCell id="13" value="Return Error" style="rounded=0;whiteSpace=wrap;html=1;fontSize=14;" vertex="1" parent="1">
                    <mxGeometry x="250" y="575" width="120" height="60" as="geometry"/>
                </mxCell>
                <mxCell id="15" value="" style="endArrow=classic;html=1;fontSize=14;entryX=0.5;entryY=0;entryDx=0;entryDy=0;" edge="1" parent="1" target="13">
                    <mxGeometry relative="1" as="geometry">
                        <mxPoint x="310" y="440" as="sourcePoint"/>
                        <mxPoint x="395" y="460" as="targetPoint"/>
                    </mxGeometry>
                </mxCell>
                <mxCell id="16" value="No" style="edgeLabel;resizable=0;html=1;align=center;verticalAlign=middle;fontSize=14;" connectable="0" vertex="1" parent="15">
                    <mxGeometry relative="1" as="geometry"/>
                </mxCell>
                <mxCell id="20" value="" style="endArrow=none;html=1;fontSize=14;" edge="1" parent="1">
                    <mxGeometry width="50" height="50" relative="1" as="geometry">
                        <mxPoint x="310" y="440" as="sourcePoint"/>
                        <mxPoint x="460" y="440" as="targetPoint"/>
                    </mxGeometry>
                </mxCell>
                <mxCell id="26" value="" style="endArrow=classic;html=1;fontSize=14;exitX=0.506;exitY=0.998;exitDx=0;exitDy=0;exitPerimeter=0;" edge="1" parent="1" source="11">
                    <mxGeometry relative="1" as="geometry">
                        <mxPoint x="520" y="520" as="sourcePoint"/>
                        <mxPoint x="546" y="560" as="targetPoint"/>
                    </mxGeometry>
                </mxCell>
                <mxCell id="27" value="Yes" style="edgeLabel;resizable=0;html=1;align=center;verticalAlign=middle;fontSize=14;" connectable="0" vertex="1" parent="26">
                    <mxGeometry relative="1" as="geometry"/>
                </mxCell>
                <mxCell id="28" value="Not Expired" style="html=1;whiteSpace=wrap;aspect=fixed;shape=isoRectangle;fontSize=14;" vertex="1" parent="1">
                    <mxGeometry x="470" y="560" width="150" height="90" as="geometry"/>
                </mxCell>
                <mxCell id="29" value="" style="endArrow=classic;html=1;fontSize=14;exitX=0.506;exitY=0.998;exitDx=0;exitDy=0;exitPerimeter=0;" edge="1" parent="1" source="28">
                    <mxGeometry relative="1" as="geometry">
                        <mxPoint x="520" y="690" as="sourcePoint"/>
                        <mxPoint x="546" y="730" as="targetPoint"/>
                    </mxGeometry>
                </mxCell>
                <mxCell id="30" value="Yes" style="edgeLabel;resizable=0;html=1;align=center;verticalAlign=middle;fontSize=14;" connectable="0" vertex="1" parent="29">
                    <mxGeometry relative="1" as="geometry"/>
                </mxCell>
                <mxCell id="33" value="" style="endArrow=classic;html=1;fontSize=14;entryX=1;entryY=0.5;entryDx=0;entryDy=0;exitX=-0.03;exitY=0.494;exitDx=0;exitDy=0;exitPerimeter=0;" edge="1" parent="1" source="28" target="13">
                    <mxGeometry relative="1" as="geometry">
                        <mxPoint x="432.69999999999993" y="604.9100000000001" as="sourcePoint"/>
                        <mxPoint x="520" y="650" as="targetPoint"/>
                    </mxGeometry>
                </mxCell>
                <mxCell id="34" value="No" style="edgeLabel;resizable=0;html=1;align=center;verticalAlign=middle;fontSize=14;" connectable="0" vertex="1" parent="33">
                    <mxGeometry relative="1" as="geometry"/>
                </mxCell>
                <mxCell id="35" value="User Valid?" style="html=1;whiteSpace=wrap;aspect=fixed;shape=isoRectangle;fontSize=14;" vertex="1" parent="1">
                    <mxGeometry x="470" y="730" width="150" height="90" as="geometry"/>
                </mxCell>
                <mxCell id="37" value="" style="endArrow=classic;html=1;fontSize=14;exitX=0.506;exitY=0.998;exitDx=0;exitDy=0;exitPerimeter=0;" edge="1" parent="1">
                    <mxGeometry relative="1" as="geometry">
                        <mxPoint x="544.6200000000001" y="820.0000000000002" as="sourcePoint"/>
                        <mxPoint x="544.72" y="900.1800000000001" as="targetPoint"/>
                    </mxGeometry>
                </mxCell>
                <mxCell id="38" value="Yes" style="edgeLabel;resizable=0;html=1;align=center;verticalAlign=middle;fontSize=14;" connectable="0" vertex="1" parent="37">
                    <mxGeometry relative="1" as="geometry"/>
                </mxCell>
                <mxCell id="39" value="" style="endArrow=classic;html=1;fontSize=14;entryX=1;entryY=1;entryDx=0;entryDy=0;" edge="1" parent="1" target="13">
                    <mxGeometry relative="1" as="geometry">
                        <mxPoint x="370" y="770" as="sourcePoint"/>
                        <mxPoint x="470" y="720" as="targetPoint"/>
                    </mxGeometry>
                </mxCell>
                <mxCell id="40" value="No" style="edgeLabel;resizable=0;html=1;align=center;verticalAlign=middle;fontSize=14;" connectable="0" vertex="1" parent="39">
                    <mxGeometry relative="1" as="geometry"/>
                </mxCell>
                <mxCell id="42" value="" style="endArrow=none;html=1;fontSize=14;entryX=-0.008;entryY=0.487;entryDx=0;entryDy=0;entryPerimeter=0;" edge="1" parent="1" target="35">
                    <mxGeometry width="50" height="50" relative="1" as="geometry">
                        <mxPoint x="370" y="774" as="sourcePoint"/>
                        <mxPoint x="430.15" y="774.1000000000001" as="targetPoint"/>
                    </mxGeometry>
                </mxCell>
                <mxCell id="43" value="Create JWT" style="rounded=0;whiteSpace=wrap;html=1;fontSize=14;" vertex="1" parent="1">
                    <mxGeometry x="485" y="900" width="120" height="60" as="geometry"/>
                </mxCell>
                <mxCell id="48" value="" style="endArrow=classic;html=1;fontSize=14;exitX=0.5;exitY=1;exitDx=0;exitDy=0;" edge="1" parent="1" source="43">
                    <mxGeometry width="50" height="50" relative="1" as="geometry">
                        <mxPoint x="570" y="990" as="sourcePoint"/>
                        <mxPoint x="545" y="1000" as="targetPoint"/>
                    </mxGeometry>
                </mxCell>
                <mxCell id="49" value="" style="endArrow=classic;html=1;fontSize=14;exitX=0.5;exitY=1;exitDx=0;exitDy=0;" edge="1" parent="1" source="13">
                    <mxGeometry width="50" height="50" relative="1" as="geometry">
                        <mxPoint x="270" y="700" as="sourcePoint"/>
                        <mxPoint x="310" y="720" as="targetPoint"/>
                    </mxGeometry>
                </mxCell>
                <mxCell id="50" value="Return Error" style="rounded=0;whiteSpace=wrap;html=1;fontSize=14;" vertex="1" parent="1">
                    <mxGeometry x="250" y="720" width="120" height="60" as="geometry"/>
                </mxCell>
                <mxCell id="52" value="Retrun JWT&lt;br&gt;Create Session" style="rounded=0;whiteSpace=wrap;html=1;fontSize=14;" vertex="1" parent="1">
                    <mxGeometry x="485" y="1000" width="125" height="60" as="geometry"/>
                </mxCell>
                <mxCell id="54" value="&lt;span style=&quot;font-size: 14px;&quot;&gt;End&lt;/span&gt;" style="ellipse;whiteSpace=wrap;html=1;" vertex="1" parent="1">
                    <mxGeometry x="670" y="990" width="120" height="80" as="geometry"/>
                </mxCell>
                <mxCell id="56" value="" style="endArrow=classic;html=1;fontSize=14;entryX=0;entryY=0.5;entryDx=0;entryDy=0;" edge="1" parent="1" target="54">
                    <mxGeometry width="50" height="50" relative="1" as="geometry">
                        <mxPoint x="610" y="1030" as="sourcePoint"/>
                        <mxPoint x="660" y="980" as="targetPoint"/>
                    </mxGeometry>
                </mxCell>
                <mxCell id="57" value="" style="endArrow=classic;html=1;fontSize=14;exitX=0.5;exitY=1;exitDx=0;exitDy=0;" edge="1" parent="1" source="50">
                    <mxGeometry width="50" height="50" relative="1" as="geometry">
                        <mxPoint x="400" y="870" as="sourcePoint"/>
                        <mxPoint x="310" y="840" as="targetPoint"/>
                    </mxGeometry>
                </mxCell>
                <mxCell id="58" value="&lt;span style=&quot;font-size: 14px;&quot;&gt;End&lt;/span&gt;" style="ellipse;whiteSpace=wrap;html=1;" vertex="1" parent="1">
                    <mxGeometry x="250" y="840" width="120" height="80" as="geometry"/>
                </mxCell>
            </root>
        </mxGraphModel>
    </diagram>
</mxfile>